<svg width="198" height="44" viewBox="0 0 198 44" fill="none" xmlns="http://www.w3.org/2000/svg">
<path d="M68.233 21.7273C68.233 23.2803 67.9489 24.6155 67.3807 25.733C66.8125 26.8456 66.0336 27.7027 65.044 28.304C64.0592 28.9006 62.9394 29.1989 61.6847 29.1989C60.4252 29.1989 59.3007 28.9006 58.3111 28.304C57.3262 27.7027 56.5497 26.8433 55.9815 25.7259C55.4134 24.6084 55.1293 23.2756 55.1293 21.7273C55.1293 20.1742 55.4134 18.8414 55.9815 17.7287C56.5497 16.6113 57.3262 15.7543 58.3111 15.1577C59.3007 14.5563 60.4252 14.2557 61.6847 14.2557C62.9394 14.2557 64.0592 14.5563 65.044 15.1577C66.0336 15.7543 66.8125 16.6113 67.3807 17.7287C67.9489 18.8414 68.233 20.1742 68.233 21.7273ZM66.0597 21.7273C66.0597 20.5436 65.8679 19.5469 65.4844 18.7372C65.1056 17.9228 64.5848 17.3073 63.9219 16.8906C63.2637 16.4692 62.518 16.2585 61.6847 16.2585C60.8466 16.2585 60.0985 16.4692 59.4403 16.8906C58.7822 17.3073 58.2614 17.9228 57.8778 18.7372C57.4991 19.5469 57.3097 20.5436 57.3097 21.7273C57.3097 22.911 57.4991 23.91 57.8778 24.7244C58.2614 25.5341 58.7822 26.1496 59.4403 26.571C60.0985 26.9877 60.8466 27.196 61.6847 27.196C62.518 27.196 63.2637 26.9877 63.9219 26.571C64.5848 26.1496 65.1056 25.5341 65.4844 24.7244C65.8679 23.91 66.0597 22.911 66.0597 21.7273ZM73.1222 22.5227V29H70.9987V18.0909H73.037V19.8665H73.1719C73.4229 19.2888 73.8159 18.8248 74.3509 18.4744C74.8907 18.1241 75.5701 17.9489 76.3893 17.9489C77.1326 17.9489 77.7837 18.1051 78.3424 18.4176C78.9011 18.7254 79.3344 19.1847 79.6421 19.7955C79.9499 20.4062 80.1038 21.1615 80.1038 22.0611V29H77.9802V22.3168C77.9802 21.526 77.7742 20.9081 77.3623 20.4631C76.9504 20.0133 76.3845 19.7884 75.6648 19.7884C75.1724 19.7884 74.7344 19.8949 74.3509 20.108C73.9721 20.321 73.6715 20.6335 73.4489 21.0455C73.2311 21.4527 73.1222 21.9451 73.1222 22.5227ZM87.8535 29.2202C86.7787 29.2202 85.853 28.9905 85.0765 28.5312C84.3047 28.0672 83.7081 27.4162 83.2867 26.5781C82.8701 25.7353 82.6617 24.7481 82.6617 23.6165C82.6617 22.4991 82.8701 21.5142 83.2867 20.6619C83.7081 19.8097 84.2952 19.1444 85.0481 18.6662C85.8057 18.188 86.6911 17.9489 87.7043 17.9489C88.3199 17.9489 88.9165 18.0507 89.4941 18.2543C90.0718 18.4579 90.5902 18.7775 91.0495 19.2131C91.5088 19.6487 91.871 20.2145 92.1362 20.9105C92.4013 21.6018 92.5339 22.4422 92.5339 23.4318V24.1847H83.862V22.5938H90.4529C90.4529 22.035 90.3393 21.5402 90.112 21.1094C89.8847 20.6738 89.5651 20.3305 89.1532 20.0795C88.746 19.8286 88.2678 19.7031 87.7185 19.7031C87.1219 19.7031 86.6011 19.8499 86.156 20.1435C85.7157 20.4323 85.3748 20.8111 85.1333 21.2798C84.8966 21.7438 84.7782 22.2481 84.7782 22.7926V24.0355C84.7782 24.7647 84.906 25.3849 85.1617 25.8963C85.4221 26.4077 85.7844 26.7983 86.2484 27.0682C86.7124 27.3333 87.2545 27.4659 87.8748 27.4659C88.2772 27.4659 88.6442 27.4091 88.9756 27.2955C89.3071 27.1771 89.5935 27.0019 89.835 26.7699C90.0765 26.5379 90.2612 26.2514 90.389 25.9105L92.3989 26.2727C92.2379 26.8646 91.9491 27.383 91.5325 27.8281C91.1205 28.2685 90.6021 28.6117 89.9771 28.858C89.3568 29.0994 88.6489 29.2202 87.8535 29.2202ZM108.687 18.2756C108.611 17.6032 108.298 17.0824 107.749 16.7131C107.2 16.339 106.509 16.152 105.675 16.152C105.079 16.152 104.563 16.2467 104.127 16.4361C103.691 16.6207 103.353 16.8764 103.111 17.2031C102.875 17.5251 102.756 17.892 102.756 18.304C102.756 18.6496 102.837 18.9479 102.998 19.1989C103.164 19.4498 103.379 19.6605 103.644 19.831C103.914 19.9967 104.203 20.1364 104.511 20.25C104.818 20.3589 105.114 20.4489 105.398 20.5199L106.819 20.8892C107.283 21.0028 107.759 21.1567 108.246 21.3509C108.734 21.545 109.186 21.8007 109.603 22.1179C110.02 22.4351 110.356 22.8281 110.611 23.2969C110.872 23.7656 111.002 24.3267 111.002 24.9801C111.002 25.804 110.789 26.5355 110.363 27.1747C109.941 27.8139 109.328 28.3182 108.523 28.6875C107.723 29.0568 106.755 29.2415 105.619 29.2415C104.53 29.2415 103.587 29.0687 102.792 28.723C101.996 28.3774 101.374 27.8873 100.924 27.2528C100.474 26.6136 100.226 25.8561 100.178 24.9801H102.38C102.423 25.5057 102.593 25.9437 102.891 26.294C103.194 26.6397 103.58 26.8977 104.049 27.0682C104.522 27.2339 105.041 27.3168 105.604 27.3168C106.225 27.3168 106.776 27.2197 107.259 27.0256C107.747 26.8267 108.13 26.5521 108.41 26.2017C108.689 25.8466 108.829 25.4323 108.829 24.9588C108.829 24.5279 108.706 24.1752 108.459 23.9006C108.218 23.6259 107.889 23.3987 107.472 23.2188C107.06 23.0388 106.594 22.8802 106.073 22.7429L104.354 22.2741C103.19 21.9569 102.266 21.4905 101.584 20.875C100.907 20.2595 100.569 19.4451 100.569 18.4318C100.569 17.5937 100.796 16.8622 101.251 16.2372C101.705 15.6122 102.321 15.1269 103.097 14.7812C103.874 14.4309 104.75 14.2557 105.725 14.2557C106.71 14.2557 107.579 14.4285 108.332 14.7741C109.089 15.1198 109.686 15.5956 110.121 16.2017C110.557 16.803 110.784 17.4943 110.803 18.2756H108.687ZM120.565 24.4759V18.0909H122.695V29H120.607V27.1108H120.494C120.243 27.6932 119.84 28.1785 119.286 28.5668C118.737 28.9503 118.053 29.142 117.234 29.142C116.533 29.142 115.913 28.9882 115.373 28.6804C114.838 28.3679 114.416 27.9062 114.109 27.2955C113.806 26.6847 113.654 25.9295 113.654 25.0298V18.0909H115.778V24.7741C115.778 25.5175 115.984 26.1094 116.396 26.5497C116.808 26.9901 117.343 27.2102 118.001 27.2102C118.398 27.2102 118.794 27.1108 119.187 26.9119C119.585 26.7131 119.914 26.4124 120.174 26.0099C120.439 25.6075 120.569 25.0961 120.565 24.4759ZM125.749 29V18.0909H127.801V19.8239H127.915C128.114 19.2367 128.464 18.7751 128.966 18.4389C129.473 18.098 130.046 17.9276 130.685 17.9276C130.817 17.9276 130.974 17.9323 131.153 17.9418C131.338 17.9512 131.483 17.9631 131.587 17.9773V20.0085C131.501 19.9848 131.35 19.9588 131.132 19.9304C130.914 19.8973 130.697 19.8807 130.479 19.8807C129.977 19.8807 129.529 19.9872 129.136 20.2003C128.748 20.4086 128.44 20.6998 128.213 21.0739C127.986 21.4432 127.872 21.8646 127.872 22.3381V29H125.749ZM143.289 18.0909L139.333 29H137.06L133.097 18.0909H135.377L138.14 26.4858H138.253L141.009 18.0909H143.289ZM149.815 29.2202C148.74 29.2202 147.815 28.9905 147.038 28.5312C146.266 28.0672 145.67 27.4162 145.248 26.5781C144.832 25.7353 144.623 24.7481 144.623 23.6165C144.623 22.4991 144.832 21.5142 145.248 20.6619C145.67 19.8097 146.257 19.1444 147.01 18.6662C147.767 18.188 148.653 17.9489 149.666 17.9489C150.282 17.9489 150.878 18.0507 151.456 18.2543C152.033 18.4579 152.552 18.7775 153.011 19.2131C153.471 19.6487 153.833 20.2145 154.098 20.9105C154.363 21.6018 154.496 22.4422 154.496 23.4318V24.1847H145.824V22.5938H152.415C152.415 22.035 152.301 21.5402 152.074 21.1094C151.846 20.6738 151.527 20.3305 151.115 20.0795C150.708 19.8286 150.229 19.7031 149.68 19.7031C149.084 19.7031 148.563 19.8499 148.118 20.1435C147.677 20.4323 147.337 20.8111 147.095 21.2798C146.858 21.7438 146.74 22.2481 146.74 22.7926V24.0355C146.74 24.7647 146.868 25.3849 147.123 25.8963C147.384 26.4077 147.746 26.7983 148.21 27.0682C148.674 27.3333 149.216 27.4659 149.837 27.4659C150.239 27.4659 150.606 27.4091 150.937 27.2955C151.269 27.1771 151.555 27.0019 151.797 26.7699C152.038 26.5379 152.223 26.2514 152.351 25.9105L154.361 26.2727C154.2 26.8646 153.911 27.383 153.494 27.8281C153.082 28.2685 152.564 28.6117 151.939 28.858C151.319 29.0994 150.611 29.2202 149.815 29.2202ZM158.082 33.0909C157.764 33.0909 157.476 33.0649 157.215 33.0128C156.955 32.9654 156.761 32.9134 156.633 32.8565L157.144 31.1165C157.532 31.2206 157.878 31.2656 158.181 31.2514C158.484 31.2372 158.752 31.1236 158.984 30.9105C159.22 30.6974 159.429 30.3494 159.609 29.8665L159.871 29.142L155.88 18.0909H158.153L160.915 26.5568H161.029L163.792 18.0909H166.072L161.576 30.456C161.368 31.0241 161.102 31.5047 160.78 31.8977C160.459 32.2955 160.075 32.5938 159.63 32.7926C159.185 32.9915 158.669 33.0909 158.082 33.0909ZM172.491 29.2202C171.469 29.2202 170.576 28.9858 169.814 28.517C169.052 28.0483 168.46 27.3925 168.038 26.5497C167.617 25.7069 167.406 24.7221 167.406 23.5952C167.406 22.4635 167.617 21.474 168.038 20.6264C168.46 19.7789 169.052 19.1207 169.814 18.652C170.576 18.1832 171.469 17.9489 172.491 17.9489C173.514 17.9489 174.407 18.1832 175.169 18.652C175.931 19.1207 176.523 19.7789 176.945 20.6264C177.366 21.474 177.577 22.4635 177.577 23.5952C177.577 24.7221 177.366 25.7069 176.945 26.5497C176.523 27.3925 175.931 28.0483 175.169 28.517C174.407 28.9858 173.514 29.2202 172.491 29.2202ZM172.499 27.4375C173.161 27.4375 173.711 27.2623 174.146 26.9119C174.582 26.5616 174.904 26.0952 175.112 25.5128C175.325 24.9304 175.432 24.2888 175.432 23.5881C175.432 22.892 175.325 22.2528 175.112 21.6705C174.904 21.0833 174.582 20.6122 174.146 20.2571C173.711 19.902 173.161 19.7244 172.499 19.7244C171.831 19.7244 171.277 19.902 170.837 20.2571C170.401 20.6122 170.077 21.0833 169.864 21.6705C169.655 22.2528 169.551 22.892 169.551 23.5881C169.551 24.2888 169.655 24.9304 169.864 25.5128C170.077 26.0952 170.401 26.5616 170.837 26.9119C171.277 27.2623 171.831 27.4375 172.499 27.4375ZM180.147 29V18.0909H182.2V19.8239H182.313C182.512 19.2367 182.863 18.7751 183.364 18.4389C183.871 18.098 184.444 17.9276 185.083 17.9276C185.216 17.9276 185.372 17.9323 185.552 17.9418C185.737 17.9512 185.881 17.9631 185.985 17.9773V20.0085C185.9 19.9848 185.748 19.9588 185.531 19.9304C185.313 19.8973 185.095 19.8807 184.877 19.8807C184.375 19.8807 183.928 19.9872 183.535 20.2003C183.147 20.4086 182.839 20.6998 182.612 21.0739C182.384 21.4432 182.271 21.8646 182.271 22.3381V29H180.147ZM196.198 20.7543L194.273 21.0952C194.192 20.849 194.065 20.6146 193.889 20.392C193.719 20.1695 193.487 19.9872 193.193 19.8452C192.9 19.7031 192.533 19.6321 192.092 19.6321C191.491 19.6321 190.989 19.767 190.587 20.0369C190.184 20.3021 189.983 20.6454 189.983 21.0668C189.983 21.4313 190.118 21.7249 190.388 21.9474C190.658 22.17 191.093 22.3523 191.695 22.4943L193.428 22.892C194.431 23.1241 195.18 23.4815 195.672 23.9645C196.164 24.4474 196.411 25.0748 196.411 25.8466C196.411 26.5 196.221 27.0824 195.842 27.5938C195.468 28.1004 194.945 28.4981 194.273 28.7869C193.605 29.0758 192.831 29.2202 191.95 29.2202C190.729 29.2202 189.732 28.9598 188.96 28.4389C188.189 27.9134 187.715 27.1676 187.54 26.2017L189.592 25.8892C189.72 26.4242 189.983 26.8291 190.381 27.1037C190.779 27.3736 191.297 27.5085 191.936 27.5085C192.632 27.5085 193.189 27.3641 193.605 27.0753C194.022 26.7817 194.23 26.4242 194.23 26.0028C194.23 25.6619 194.102 25.3755 193.847 25.1435C193.596 24.9115 193.21 24.7363 192.689 24.6179L190.842 24.2131C189.824 23.9811 189.072 23.6117 188.584 23.1051C188.101 22.5985 187.86 21.9569 187.86 21.1804C187.86 20.5365 188.039 19.973 188.399 19.4901C188.759 19.0071 189.256 18.6307 189.891 18.3608C190.525 18.0862 191.252 17.9489 192.071 17.9489C193.25 17.9489 194.178 18.2045 194.855 18.7159C195.532 19.2225 195.98 19.902 196.198 20.7543Z" fill="white"/>
<path d="M21.0959 0H0C16.5098 0 20.943 13.6621 21.0959 20.4932V0Z" fill="white"/>
<path d="M44 0H22.9041C39.4139 0 43.8471 13.6621 44 20.4932V0Z" fill="white"/>
<path d="M21.0959 23.5068H0C16.5098 23.5068 20.943 37.169 21.0959 44V23.5068Z" fill="white"/>
<path d="M44 23.5068H22.9041C39.4139 23.5068 43.8471 37.169 44 44V23.5068Z" fill="white"/>
</svg>
