<svg width="67" height="101" viewBox="0 0 67 101" fill="none" xmlns="http://www.w3.org/2000/svg">
<path d="M0 0H67V101H0V0Z" fill="#236793"/>
<path fill-rule="evenodd" clip-rule="evenodd" d="M33 55V0L34 0V55H33Z" fill="#BDBDBD" fill-opacity="0.1"/>
<path fill-rule="evenodd" clip-rule="evenodd" d="M33 101V77H34V101H33Z" fill="#BDBDBD" fill-opacity="0.1"/>
<path fill-rule="evenodd" clip-rule="evenodd" d="M0.323127 25L67 0.98746L66.6769 0L1.1197e-06 24.0125L0.323127 25Z" fill="#BDBDBD" fill-opacity="0.1"/>
<path fill-rule="evenodd" clip-rule="evenodd" d="M66.6769 24L0 0.947962L0.323119 0L67 23.052L66.6769 24Z" fill="#BDBDBD" fill-opacity="0.1"/>
<path fill-rule="evenodd" clip-rule="evenodd" d="M33.2403 54L67 66.2667L33.2403 78L0 66.2667L33.2403 54ZM33.2429 55.0815L2.99124 66.2453L33.2428 76.9237L63.9671 66.2453L33.2429 55.0815Z" fill="#BDBDBD" fill-opacity="0.1"/>
</svg>
